<svg xmlns="http://www.w3.org/2000/svg" width="320" height="320" viewBox="0 0 260 260" role="img" aria-labelledby="title desc">
  <title id="title">SecureCollab Logo</title>
  <desc id="desc">SecureCollab shield-chat icon mark.</desc>

  <defs>
    <linearGradient id="halo" x1="0" y1="0" x2="1" y2="1">
      <stop offset="0%" stop-color="#14b8a6" stop-opacity="0.35" />
      <stop offset="100%" stop-color="#22c55e" stop-opacity="0.12" />
    </linearGradient>
    <linearGradient id="ink" x1="0" y1="0" x2="1" y2="1">
      <stop offset="0%" stop-color="#0f172a" />
      <stop offset="100%" stop-color="#1f2937" />
    </linearGradient>
    <linearGradient id="accent" x1="0" y1="0" x2="1" y2="1">
      <stop offset="0%" stop-color="#06b6d4" />
      <stop offset="100%" stop-color="#22c55e" />
    </linearGradient>
  </defs>

  <g transform="translate(30,28)">
    <circle cx="96" cy="96" r="90" fill="url(#halo)" />

    <path d="M96 10 L164 38 V98 C164 147 133 186 96 202 C59 186 28 147 28 98 V38 Z" fill="url(#ink)" />
    <path d="M96 16 L158 42 V97 C158 142 130 178 96 193 C62 178 34 142 34 97 V42 Z" fill="none" stroke="url(#accent)" stroke-width="3.5" />

    <path d="M67 82 h58 a12 12 0 0 1 12 12 v18 a12 12 0 0 1 -12 12 h-20 l-10 12 -10 -12 h-18 a12 12 0 0 1 -12 -12 v-18 a12 12 0 0 1 12 -12 z" fill="#f8fafc" />
    <circle cx="79" cy="103" r="4" fill="#0f172a" />
    <circle cx="96" cy="103" r="4" fill="#0f172a" />
    <circle cx="113" cy="103" r="4" fill="#0f172a" />

    <circle cx="178" cy="62" r="8" fill="#06b6d4" />
    <circle cx="206" cy="94" r="8" fill="#10b981" />
    <circle cx="176" cy="124" r="8" fill="#22c55e" />
    <line x1="184" y1="67" x2="200" y2="88" stroke="#34d399" stroke-width="2.5" />
    <line x1="199" y1="100" x2="182" y2="119" stroke="#34d399" stroke-width="2.5" />
  </g>

</svg>
